<?xml version="1.0" encoding="UTF-8" standalone="no"?>
<svg
   xmlns:dc="http://purl.org/dc/elements/1.1/"
   xmlns:cc="http://creativecommons.org/ns#"
   xmlns:rdf="http://www.w3.org/1999/02/22-rdf-syntax-ns#"
   xmlns:svg="http://www.w3.org/2000/svg"
   xmlns="http://www.w3.org/2000/svg"
   xmlns:sodipodi="http://sodipodi.sourceforge.net/DTD/sodipodi-0.dtd"
   xmlns:inkscape="http://www.inkscape.org/namespaces/inkscape"
   version="1.1"
   id="svg2"
   width="512"
   height="512"
   viewBox="0 0 512 512"
   sodipodi:docname="logo-td.svg"
   inkscape:version="1.0 (4035a4fb49, 2020-05-01)">
  <metadata
     id="metadata8">
    <rdf:RDF>
      <cc:Work
         rdf:about="">
        <dc:format>image/svg+xml</dc:format>
        <dc:type
           rdf:resource="http://purl.org/dc/dcmitype/StillImage" />
        <dc:title></dc:title>
      </cc:Work>
    </rdf:RDF>
  </metadata>
  <defs
     id="defs6">
    <rect
       x="41.401081"
       y="121.20316"
       width="421.211"
       height="263.40686"
       id="rect858" />
    <clipPath
       clipPathUnits="userSpaceOnUse"
       id="clipPath903">
      <rect
         style="display:inline;opacity:0.6;fill:#808080;fill-opacity:0.188235;stroke:#b3b3b3;stroke-width:7.08139"
         id="rect905"
         width="504.91861"
         height="504.91861"
         x="3.0406952"
         y="3.0406952" />
    </clipPath>
    <rect
       id="rect858-1"
       height="263.40686"
       width="421.211"
       y="121.20316"
       x="41.401081" />
    <rect
       id="rect916"
       height="263.40686"
       width="421.211"
       y="121.20316"
       x="41.401081" />
    <filter
       inkscape:collect="always"
       style="color-interpolation-filters:sRGB"
       id="filter1106-9-1-2-1"
       x="-0.00028982572"
       width="1.0005797"
       y="-0.00043165532"
       height="1.0008633">
      <feGaussianBlur
         inkscape:collect="always"
         stdDeviation="0.0050720822"
         id="feGaussianBlur1108-7-1-6-5" />
    </filter>
    <filter
       inkscape:collect="always"
       style="color-interpolation-filters:sRGB"
       id="filter1106-9-1-2-1-9-6"
       x="-0.00028982572"
       width="1.0005797"
       y="-0.00043165532"
       height="1.0008633">
      <feGaussianBlur
         inkscape:collect="always"
         stdDeviation="0.0050720822"
         id="feGaussianBlur1108-7-1-6-5-4-4" />
    </filter>
  </defs>
  <sodipodi:namedview
     inkscape:document-rotation="0"
     pagecolor="#ffffff"
     bordercolor="#666666"
     borderopacity="1"
     objecttolerance="10"
     gridtolerance="10"
     guidetolerance="10"
     inkscape:pageopacity="0"
     inkscape:pageshadow="2"
     inkscape:window-width="1920"
     inkscape:window-height="1051"
     id="namedview4"
     showgrid="false"
     inkscape:pagecheckerboard="true"
     fit-margin-top="0"
     fit-margin-left="0"
     fit-margin-right="0"
     fit-margin-bottom="0"
     inkscape:zoom="1.3322562"
     inkscape:cx="289.50442"
     inkscape:cy="226.54743"
     inkscape:window-x="-9"
     inkscape:window-y="-9"
     inkscape:window-maximized="1"
     inkscape:current-layer="layer2" />
  <g
     inkscape:groupmode="layer"
     id="layer3"
     inkscape:label="background 1"
     style="display:inline"
     transform="translate(0.49999976,0.49999976)" />
  <g
     inkscape:groupmode="layer"
     id="layer1"
     inkscape:label="background"
     style="display:inline"
     transform="translate(0.49999976,0.49999976)" />
  <g
     inkscape:groupmode="layer"
     id="layer2"
     inkscape:label="text"
     style="display:inline"
     transform="translate(0.49999976,0.49999976)">
    <path
       id="rect1080-9-1-8-8"
       style="font-variation-settings:normal;display:inline;opacity:0.8;vector-effect:none;fill:#e6e6e6;fill-opacity:0.501961;stroke:none;stroke-width:7.25669;stroke-linecap:butt;stroke-linejoin:miter;stroke-miterlimit:4;stroke-dasharray:none;stroke-dashoffset:0;stroke-opacity:1;filter:url(#filter1106-9-1-2-1);stop-color:#000000;stop-opacity:1"
       transform="matrix(-0.06345237,0,0,-0.14288312,56.080396,430.25982)"
       d="m 84.918877,410.48114 v 0 l 42.001093,28.20074 H 84.918877 Z"
       sodipodi:nodetypes="ccccc" />
    <path
       id="rect1080-9-1-8-8-0-5"
       style="font-variation-settings:normal;display:inline;opacity:0.8;vector-effect:none;fill:#e6e6e6;fill-opacity:0.501961;stroke:none;stroke-width:7.25669;stroke-linecap:butt;stroke-linejoin:miter;stroke-miterlimit:4;stroke-dasharray:none;stroke-dashoffset:0;stroke-opacity:1;filter:url(#filter1106-9-1-2-1-9-6);stop-color:#000000;stop-opacity:1"
       transform="matrix(-0.05729959,0,0,-0.10661666,55.553883,215.37366)"
       d="m 84.918877,410.48114 v 0 l 42.001093,28.20074 H 84.918877 Z"
       sodipodi:nodetypes="ccccc" />
    <path
       style="display:inline;fill:#ff7f2a;stroke-width:0.609832;fill-opacity:0.53725493"
       d="m 278.48133,474.56082 c 0,-0.91048 4.59768,-2.48301 10.34076,-3.53681 6.55216,-1.20227 8.4272,-2.00431 6.45497,-2.76113 -0.96344,-0.36971 -7.85067,0.71509 -17.90797,2.82064 -1.78566,0.37384 -3.54576,0.58001 -3.91133,0.45815 -1.5854,-0.52846 4.23208,-2.91392 10.01244,-4.10559 4.11522,-0.84838 7.06868,-1.8316 8.53437,-2.84112 2.25545,-1.55349 3.16857,-2.84088 2.49365,-3.51578 -0.68287,-0.68289 -5.94726,-0.34885 -8.39399,0.53262 -2.88511,1.0394 -3.96391,1.13894 -3.96391,0.36577 0,-0.3116 1.49537,-1.00127 3.32304,-1.53259 3.18966,-0.92726 4.9398,-2.1155 3.26865,-2.21922 -0.43905,-0.0273 -1.48434,-0.14593 -2.32286,-0.26375 -6.51179,-0.91494 -7.39349,-1.11988 -6.62844,-1.54067 1.2695,-0.69824 9.6274,-3.49329 12.72676,-4.25609 1.50933,-0.37146 4.25358,-1.05476 6.09832,-1.51842 1.84474,-0.46367 4.7262,-1.14835 6.40324,-1.5215 1.67704,-0.37316 3.59801,-0.90265 4.26882,-1.17666 0.67082,-0.274 2.86621,-0.97823 4.87866,-1.56494 4.86572,-1.41857 15.39206,-6.32997 15.79016,-7.3674 0.40271,-1.04945 -2.34254,-0.60371 -11.52133,1.87068 -2.01245,0.54251 -5.16833,1.36381 -7.01307,1.82511 -1.84475,0.46131 -5.00063,1.29261 -7.01307,1.84735 -5.84899,1.61228 -7.62291,1.78967 -7.62291,0.76224 0,-0.72724 -0.56372,-0.80128 -3.07643,-0.40408 -1.69204,0.26748 -3.61302,0.65663 -4.26883,0.86478 -0.65581,0.20815 -1.19239,0.13606 -1.19239,-0.16019 0,-0.99079 4.55783,-3.11509 10.08118,-4.69858 6.67327,-1.91318 8.82362,-2.75556 8.82362,-3.45661 0,-0.7199 -1.68286,-0.67568 -4.27285,0.11229 -1.17171,0.35648 -4.18857,1.02134 -6.70413,1.47746 -2.51556,0.45613 -5.19119,1.01974 -5.94586,1.25248 -0.85638,0.26411 -1.37212,0.16721 -1.37212,-0.25779 0,-0.37453 0.41163,-0.68096 0.91474,-0.68096 0.50312,0 0.91475,-0.20899 0.91475,-0.46442 0,-0.48043 -13.68202,0.11725 -17.99005,0.78587 -10.38502,1.61177 -18.60025,1.85342 -20.99629,0.61759 -1.15057,-0.59344 -2.44907,-0.66868 -4.88189,-0.28285 -2.2561,0.3578 -3.57403,0.31014 -4.12756,-0.14924 -0.5051,-0.4192 -6.29583,-0.85434 -15.28549,-1.14862 -7.95977,-0.26056 -14.54092,-0.4972 -14.62478,-0.52587 -0.0838,-0.0287 -0.15245,-0.4943 -0.15245,-1.03474 0,-0.80233 0.41284,-0.90517 2.25001,-0.56052 1.95017,0.36586 2.14945,0.30093 1.49534,-0.48721 -0.41885,-0.5047 -2.16632,-1.03422 -3.92705,-1.19 -3.10528,-0.27474 -6.63251,-1.20735 -17.91485,-4.73673 -6.77189,-2.11841 -18.98068,-7.9113 -25.81137,-12.24712 -15.71941,-9.97797 -19.74009,-12.52013 -20.61089,-13.03166 -0.57098,-0.33541 -1.17536,-0.74963 -1.34307,-0.9205 -0.77175,-0.78629 -9.92821,-6.7024 -10.37343,-6.7024 -0.27605,0 -0.59338,-0.21664 -0.70519,-0.48142 -0.32556,-0.77103 -6.53557,-4.39724 -7.53042,-4.39724 -1.30864,0 -1.11927,0.57114 0.65111,1.96371 2.62627,2.06584 1.1309,1.94936 -1.77617,-0.13834 -2.25838,-1.62184 -3.16957,-1.92106 -5.24677,-1.72297 -2.7344,0.26077 -1.70653,1.1657 -14.25043,-12.54607 -0.94964,-1.03807 -3.98542,-4.90605 -6.74617,-8.59554 -15.394871,-20.57379 -23.37449,-37.41066 -31.214396,-65.86188 -2.074417,-7.52811 -4.807841,-24.6331 -5.311177,-33.23585 -1.162379,-19.86672 -1.172182,-21.4054 -0.2137,-33.54077 0.543073,-6.87586 1.301903,-14.65764 1.686289,-17.29285 0.580473,-3.9795 0.555644,-4.88042 -0.146545,-5.31742 -0.718695,-0.44727 -0.714944,-0.73461 0.02502,-1.91687 1.846904,-2.95083 2.47625,-4.50006 2.479871,-6.10458 0.0021,-0.91559 0.393559,-2.69935 0.869984,-3.96391 1.200093,-3.1854 1.757521,-6.87296 1.038944,-6.87296 -1.119484,0 -8.000291,15.42967 -9.518338,21.34413 -0.21522,0.83852 -0.626347,2.07343 -0.913616,2.74424 -0.531587,1.24134 -2.128396,8.55394 -2.750324,12.59514 -0.188584,1.2254 -0.705939,2.36731 -1.149678,2.53759 -0.443739,0.17028 -1.047217,1.77471 -1.341061,3.56542 -0.614057,3.74207 -0.700131,34.3527 -0.122761,43.65719 0.213334,3.43793 0.166192,6.25078 -0.104758,6.25078 -1.105822,0 -2.006082,-3.74433 -1.612897,-6.7083 0.298433,-2.2497 0.142125,-3.53565 -0.60549,-4.98138 -0.655486,-1.26757 -1.182979,-4.52143 -1.508976,-9.30817 -0.522299,-7.6691 -1.371536,-12.21635 -2.54573,-13.63117 -0.433007,-0.52174 -0.6325,-2.98671 -0.535668,-6.61879 0.149133,-5.5938 -0.470554,-8.03056 -1.828763,-7.19114 -0.297403,0.1838 -0.544936,-0.16224 -0.550072,-0.769 -0.0051,-0.60676 -0.2556,-1.49226 -0.556587,-1.96779 -0.803034,-1.2687 -3.087886,2.72902 -3.090788,5.40784 -0.0018,1.63638 -0.164902,1.94129 -0.734078,1.37212 -1.101573,-1.10157 -1.699568,-0.88624 -1.778272,0.64032 -0.05459,1.05884 -0.135166,1.12458 -0.352904,0.28792 -0.15519,-0.5963 0.398731,-2.24605 1.230935,-3.6661 1.719196,-2.93359 1.777909,-5.96557 0.152286,-7.86416 -0.798637,-0.93274 -0.909004,-1.59409 -0.474181,-2.84143 0.646676,-1.85505 -0.02783,-4.28704 -1.497681,-5.40002 -0.878364,-0.66511 -0.873294,-0.82416 0.05589,-1.75334 2.534818,-2.53482 3.967266,-7.27064 5.519945,-18.2495 0.914019,-6.46295 1.425865,-8.76689 2.1677,-9.75732 1.506399,-2.0112 2.939623,-5.32231 3.317991,-7.66539 0.880581,-5.4531 5.0884,-15.2841 8.856412,-20.6918 0.584268,-0.83852 2.834091,-4.95489 4.999606,-9.14748 4.022838,-7.78851 5.257023,-9.90252 10.1468,-17.38022 13.567395,-20.74796 32.886178,-41.82019 46.992288,-51.257498 3.03482,-2.030366 5.08044,-3.938508 6.25285,-5.832618 1.40895,-2.27627 2.58826,-3.23212 6.16166,-4.99413 2.43057,-1.19849 5.92855,-3.58667 7.77329,-5.30706 3.76902,-3.51496 7.71748,-6.22402 13.11139,-8.9958 4.26343,-2.19086 14.53075,-6.24515 15.81557,-6.24515 0.48556,0 1.05244,-0.27443 1.25973,-0.60983 0.20729,-0.33541 0.84095,-0.61153 1.40811,-0.61359 0.56717,-0.002 1.81726,-0.41371 2.77797,-0.91475 0.96071,-0.50105 2.05841,-0.9203 2.43933,-0.93168 0.38091,-0.0114 1.79027,-0.55092 3.1319,-1.19898 1.34164,-0.64805 2.626,-1.18759 2.85416,-1.19897 0.77552,-0.0387 8.11463,-3.63373 9.95232,-4.87512 1.00622,-0.67972 2.78998,-1.24141 3.96391,-1.2482 3.11433,-0.018 4.87866,-0.6211 4.87866,-1.66763 0,-0.70727 -0.45805,-0.83418 -1.98196,-0.54916 -1.71818,0.32136 -1.81968,0.27557 -0.76266,-0.3441 1.46351,-0.85796 6.56677,-2.19076 11.58718,-3.02618 2.01245,-0.33488 5.22423,-1.11574 7.13731,-1.73524 2.85482,-0.92447 4.16657,-1.02681 7.31798,-0.57089 3.78005,0.54686 3.86335,0.52786 5.36426,-1.22335 1.98569,-2.31684 3.61073,-2.45066 30.18669,-2.48582 19.21875,-0.0254 28.31263,0.42411 30.94384,1.52966 0.7265,0.30525 1.1895,0.11417 1.46539,-0.60478 0.34165,-0.89035 0.91896,-0.99041 3.77642,-0.65458 1.85521,0.21805 3.66561,0.62049 4.02311,0.89432 1.25664,0.96254 9.54718,2.59915 11.26036,2.22287 1.38789,-0.30483 1.79456,-0.14403 2.04353,0.80804 0.48052,1.83753 3.17295,3.36383 4.5931,2.60378 1.52221,-0.81465 6.75222,0.75449 12.93501,3.88084 3.42116,1.72992 5.56611,2.38788 8.53765,2.6189 3.08973,0.24021 4.44127,0.67517 6.10301,1.96409 3.35296,2.60071 4.83913,3.19484 6.98472,2.79233 1.66975,-0.31325 2.44303,-0.003 4.9669,1.99476 1.6441,1.30117 8.12935,5.83096 14.41169,10.06619 6.28233,4.23522 13.69179,9.36957 16.46546,11.40964 5.22097,3.84009 18.76428,16.127479 18.76428,17.024189 0,1.13752 -2.49727,-0.25225 -4.00483,-2.228758 -1.6647,-2.18253 -10.07256,-8.734711 -11.20851,-8.734711 -0.35327,0 -0.6423,-0.24063 -0.6423,-0.53474 0,-0.2941 -1.41213,-1.14222 -3.13807,-1.88469 -1.72593,-0.74248 -5.11482,-3.07396 -7.53086,-5.18106 -5.08817,-4.43755 -9.38802,-7.28774 -16.04033,-10.63246 -5.27528,-2.65236 -19.27127,-8.59967 -20.23787,-8.59967 -1.52108,0 -0.3979,1.40494 1.81955,2.27598 1.53349,0.60237 2.43933,1.34903 2.43933,2.01068 0,1.77268 1.77864,2.66244 5.51397,2.75833 3.40913,0.0875 3.72744,0.23646 7.10733,3.32549 2.37291,2.1687 5.84844,4.36225 10.55188,6.65971 7.26462,3.5485 11.66185,6.28775 13.66373,8.51178 1.64328,1.82565 0.98508,1.64221 -5.00886,-1.39598 -9.78147,-4.95799 -27.18631,-13.16901 -27.91427,-13.16901 -0.17694,0 -1.47295,-0.51788 -2.88003,-1.15085 -3.76325,-1.69288 -13.86218,-5.39819 -15.97464,-5.86111 -1.00622,-0.2205 -2.37834,-0.63877 -3.04916,-0.92949 -1.82061,-0.78901 -11.90005,-2.62065 -12.28776,-2.23294 -0.68362,0.68362 0.44669,1.50532 2.97745,2.1645 3.34799,0.87205 5.23967,2.08936 2.60216,1.67451 -1.00623,-0.15826 -3.47605,-0.73954 -5.48849,-1.29171 -3.77358,-1.0354 -4.72286,-1.2385 -15.55072,-3.32707 -15.89663,-3.06628 -16.09883,-3.09066 -28.81457,-3.47525 -5.93434,-0.17948 -9.60486,-0.0667 -9.60486,0.29519 0,1.11203 3.38892,1.46364 13.23601,1.3733 5.43506,-0.0499 10.3747,0.1692 10.97698,0.48682 3.62532,1.91185 9.14858,3.73645 11.31063,3.73645 1.74574,0 2.94611,0.40755 3.93411,1.33573 1.12531,1.05718 2.03754,1.30306 4.37424,1.17904 3.36406,-0.17855 8.19585,1.22509 10.44309,3.03374 l 1.52458,1.22702 -3.20161,-0.39583 c -3.79979,-0.46979 -4.46921,0.61692 -0.76549,1.24266 1.33987,0.22637 2.59098,0.66213 2.78024,0.96835 0.18925,0.30623 0.80815,0.55846 1.37532,0.56053 0.56716,0.002 1.76739,0.38784 2.66717,0.85727 0.89978,0.46943 2.54632,1.04828 3.65899,1.28633 1.11267,0.23804 2.29746,0.6377 2.63287,0.88813 0.3354,0.25043 1.3119,0.62241 2.16999,0.82662 0.8581,0.20421 2.64186,0.84283 3.96391,1.41916 1.32206,0.57632 2.5867,1.06454 2.8103,1.08492 0.22361,0.0204 0.61237,0.24287 0.86393,0.49442 0.25155,0.25156 0.85265,0.45738 1.33576,0.45738 0.48311,0 2.56416,0.78197 4.62456,1.73772 2.06039,0.95575 4.84387,2.21269 6.18551,2.7932 6.03892,2.61298 17.20547,8.503723 20.974,11.064507 3.46236,2.352732 1.55111,1.723771 -4.06572,-1.337967 -9.93787,-5.41714 -19.59822,-9.98864 -21.10766,-9.98864 -0.50172,0 -1.06593,-0.24871 -1.2538,-0.5527 -0.18788,-0.30398 -1.78201,-0.73547 -3.54253,-0.95886 -1.76051,-0.22339 -3.74763,-0.5631 -4.41582,-0.75493 -2.50739,-0.71982 0.21517,1.40657 4.3964,3.43371 12.86453,6.23698 33.71333,17.830269 33.71333,18.746816 0,0.57119 -2.50402,-0.517287 -7.32653,-3.184807 -5.26472,-2.91211 -5.47995,-2.99573 -5.47995,-2.1289 0,0.95863 6.56675,5.670727 14.94089,10.721127 7.28252,4.39205 12.22095,8.09336 11.61156,8.70276 -0.13567,0.13567 -1.70607,-0.70256 -3.48978,-1.86271 -6.78031,-4.41003 -8.25015,-5.01965 -9.93227,-4.1194 -1.31002,0.7011 -1.88551,0.66201 -4.12479,-0.28018 -1.4313,-0.60224 -3.56286,-1.48789 -4.73678,-1.96813 -2.35341,-0.96276 -2.91451,-1.20554 -8.23274,-3.56227 -2.01244,-0.8918 -6.26602,-2.709697 -9.4524,-4.039777 -3.18637,-1.33008 -6.34225,-2.65569 -7.01307,-2.94581 -4.36423,-1.88744 -6.13219,-2.530088 -11.58681,-4.211762 -6.98309,-2.152912 -11.89172,-2.988367 -11.89172,-2.023983 0,0.821764 4.86668,3.186453 6.55793,3.186453 2.32013,0 9.38765,1.861182 11.03942,2.907152 0.8868,0.56156 2.57285,1.75475 3.74677,2.65152 1.17393,0.89678 3.23211,2.00251 4.57374,2.457197 1.34163,0.45468 3.04269,1.53561 3.78012,2.40207 0.73743,0.86644 3.07004,2.48335 5.18357,3.59311 4.49413,2.35974 6.08586,3.61473 5.59401,4.41055 -0.44206,0.71529 2.13686,3.53235 3.23374,3.53235 0.44464,0 0.80844,0.27443 0.80844,0.60984 0,0.76402 -2.1078,0.7939 -3.51481,0.0498 -0.58241,-0.308 -2.43105,-1.16179 -4.10809,-1.89731 -1.67704,-0.73552 -4.61116,-2.24932 -6.52027,-3.364 -3.32472,-1.94121 -15.5465,-6.37532 -17.57236,-6.37532 -0.53431,0 -1.23217,-0.24552 -1.55081,-0.54558 -0.31864,-0.30007 -1.81425,-0.82803 -3.32359,-1.17324 -1.50933,-0.34522 -4.25357,-1.08286 -6.09832,-1.639207 -5.03006,-1.51701 -6.09832,-1.71508 -6.09832,-1.13076 0,0.29264 0.75467,0.86517 1.67704,1.272307 0.92237,0.40714 4.25696,1.8583 7.41019,3.22479 6.16615,2.67218 10.61023,4.61094 12.56181,5.48017 0.67082,0.29879 2.58561,1.14237 4.25511,1.87465 6.47528,2.84019 21.57372,10.29439 21.89097,10.80772 0.4211,0.68135 -6.41869,-0.42207 -7.21079,-1.16327 -0.31864,-0.29817 -0.96322,-0.54212 -1.43241,-0.54212 -0.4692,0 -1.71783,-0.38934 -2.77474,-0.86521 -11.86558,-5.34237 -27.94135,-10.82305 -28.90864,-9.85576 -0.81875,0.81875 1.50012,2.18207 5.11333,3.00625 3.32085,0.75749 4.48088,1.39453 7.16913,3.93696 3.61243,3.41649 6.77344,5.20444 11.4843,6.49583 8.2224,2.25399 9.52924,2.65866 10.60651,3.28432 1.01193,0.5877 1.0256,0.67092 0.11285,0.68722 -0.57119,0.0102 -1.73865,-0.30046 -2.59436,-0.69035 -0.85573,-0.38989 -1.76052,-0.5025 -2.01066,-0.25025 -0.66937,0.67504 2.84921,3.30937 5.49832,4.11654 1.26176,0.38445 2.59887,1.06622 2.97137,1.51505 0.96416,1.16174 0.51296,1.04635 -4.15574,-1.06283 -5.96284,-2.69383 -7.44549,-3.31815 -10.86706,-4.5759 -1.67704,-0.61648 -3.73523,-1.47284 -4.57375,-1.90303 -0.83851,-0.43019 -1.87133,-0.78385 -2.29514,-0.78592 -0.42381,-0.002 -1.24708,-0.25385 -1.8295,-0.55952 -1.40744,-0.73868 -5.5238,-2.09779 -11.12116,-3.6719 -2.51556,-0.70744 -5.38556,-1.55269 -6.37778,-1.87834 -2.17859,-0.71501 -3.35226,0.0955 -2.18132,1.50642 0.42934,0.51732 1.16239,0.94059 1.62897,0.94059 0.4666,0 1.32488,0.24621 1.90729,0.54712 0.58241,0.30092 1.74499,0.82506 2.58351,1.16477 l 1.52458,0.61763 -1.52458,-0.11336 c -0.83852,-0.0624 -2.07343,-0.41962 -2.74424,-0.79393 -1.4423,-0.80478 -3.71171,-1.48419 -13.11139,-3.92524 -11.66062,-3.02822 -17.50388,-4.16778 -23.54991,-4.59278 -3.1697,-0.22281 -5.90727,-0.63838 -6.08347,-0.92348 -0.41862,-0.67733 -31.17957,-0.67742 -31.59818,-10e-5 -0.17617,0.28506 -2.71497,0.70235 -5.64177,0.92733 -5.44792,0.41876 -13.0959,1.88757 -14.98837,2.87855 -0.58241,0.30497 -1.56528,0.5545 -2.18417,0.5545 -2.01891,0 -14.19009,3.97318 -20.54035,6.70523 -1.34163,0.57721 -3.38742,1.43145 -4.54619,1.89832 -5.79366,2.33426 -15.57827,7.65265 -15.57827,8.46752 0,1.40166 1.96379,1.44503 4.25371,0.0939 1.44463,-0.85235 1.98058,-0.96886 1.75521,-0.38156 -0.36912,0.96189 -3.52447,2.94826 -5.50592,3.46611 -0.96667,0.25263 -1.23847,0.11726 -1.00196,-0.49905 0.53699,-1.39938 -2.56708,-1.01151 -6.07701,0.75938 -6.03049,3.04259 -18.95242,13.41767 -30.22607,24.26865 -12.7341,12.25669 -26.58634,32.05255 -33.56626,47.96867 -0.67464,1.53834 -1.68915,3.18086 -2.25448,3.65004 -2.3881,1.98195 -5.28182,8.21143 -6.07018,13.06762 -0.49409,3.04355 -1.32315,5.83725 -2.89558,9.75731 -0.6727,1.67704 -1.27756,4.5585 -1.34414,6.40324 -0.0666,1.84474 -0.51763,5.54947 -1.002341,8.23273 -0.48471,2.68326 -0.72411,5.70193 -0.53201,6.70816 0.32919,1.72425 0.39094,1.75934 1.073481,0.60983 0.91529,-1.54149 0.99192,-0.65568 0.0892,1.03107 -0.489961,0.91551 -0.489171,1.60696 0.003,2.55169 0.39182,0.75219 0.53532,2.70312 0.34203,4.64997 -0.42365,4.26704 -0.44034,6.74397 -0.0753,11.1723 0.80277,9.7382 1.12697,11.46979 4.24512,22.67339 2.49767,8.97421 10.01938,24.60053 16.43835,34.1506 9.41905,14.01356 23.40644,27.18344 39.7874,37.46198 2.34785,1.4732 5.24406,3.3204 6.43602,4.10487 1.19195,0.78448 2.36371,1.42632 2.6039,1.42632 0.2402,0 1.52662,0.68803 2.85872,1.52894 3.34723,2.11302 21.4853,11.27128 22.32975,11.27473 0.37819,0.002 1.02925,0.41444 1.44679,0.91756 0.62177,0.74918 0.5801,0.91474 -0.23025,0.91474 -1.34487,0 -1.24943,1.0376 0.16508,1.79462 0.88216,0.47212 1.51621,0.33333 2.68798,-0.58837 1.95994,-1.5417 2.27435,-1.51682 2.0962,0.16588 -0.13845,1.30779 0.11206,1.3899 5.34322,1.75133 3.01867,0.20856 7.27225,0.84427 9.4524,1.41268 9.71674,2.53335 12.1714,2.91223 18.95751,2.92619 6.87623,0.0141 7.05912,0.0493 6.81757,1.31293 -0.24353,1.27396 -0.11248,1.29478 6.96036,1.10564 7.80872,-0.20881 9.01131,-0.3998 8.4309,-1.33894 -0.5193,-0.84024 0.50482,-0.77747 1.36602,0.0837 0.68425,0.68424 1.52455,0.49742 5.9493,-1.32267 2.92465,-1.20303 8.84521,-2.6424 18.9048,-4.59598 2.34785,-0.45595 5.29791,-1.08546 6.55569,-1.39889 1.32705,-0.33069 2.28687,-0.34088 2.28687,-0.0243 0,0.30009 -0.26066,0.54561 -0.57926,0.54561 -0.31859,0 -1.75932,0.78916 -3.20162,1.7537 -1.44229,0.96452 -4.40611,2.36498 -6.58626,3.11212 -2.18015,0.74713 -4.51276,1.58853 -5.18358,1.86978 -0.67081,0.28125 -2.18015,0.71445 -3.35407,0.96267 -1.17393,0.24821 -2.54605,0.54804 -3.04917,0.66627 -7.08447,1.66492 -14.47201,2.30752 -26.52769,2.30752 -13.97901,0 -20.13713,-0.66055 -28.20474,-3.02542 -1.76089,-0.51616 -4.50514,-1.31861 -6.09832,-1.7832 -2.92706,-0.85357 -5.54296,-1.78417 -7.77536,-2.76607 -0.67082,-0.29506 -4.10113,-1.55365 -7.62291,-2.79687 -3.52178,-1.24322 -7.36372,-2.62856 -8.53765,-3.07852 l -2.13441,-0.81812 1.98196,-0.0314 c 1.09007,-0.0173 1.98195,-0.26787 1.98195,-0.55685 0,-0.49796 -7.41584,-4.28011 -29.57686,-15.0845 -10.31092,-5.02698 -15.86655,-8.31853 -21.48998,-12.73216 -3.15164,-2.47355 -4.42799,-2.92049 -4.42799,-1.55051 0,1.17038 3.38749,4.42925 7.408,7.12672 2.34264,1.57174 4.65991,3.63232 5.14949,4.57905 0.62654,1.21159 1.35457,1.72134 2.45845,1.72134 1.12782,0 2.58188,1.06187 5.17695,3.78064 3.23687,3.39114 3.51265,3.87661 2.67693,4.71233 -0.52414,0.52414 -1.9953,0.93171 -3.36311,0.93171 -3.0562,0 -3.08578,0.77762 -0.14454,3.79992 3.23217,3.32124 7.39961,6.07808 15.90787,10.52333 2.51088,1.31185 0.98011,1.33911 -2.48088,0.0442 -1.84322,-0.68964 -3.84281,-1.79698 -4.44353,-2.46077 -0.60072,-0.66381 -1.83079,-1.20691 -2.7335,-1.20691 -2.17766,0 -9.0737,-3.59728 -10.353,-5.40059 -0.81271,-1.14561 -9.38239,-7.40588 -10.13791,-7.40588 -0.46882,0 -0.8524,0.41345 -0.8524,0.91877 0,1.08901 2.16944,3.07127 5.28463,4.82867 2.76286,1.55864 3.56661,3.11111 1.13135,2.18522 -2.79982,-1.0645 -3.1349,-0.62751 -0.95052,1.2396 2.88038,2.46202 0.95157,2.44517 -3.43419,-0.03 -4.64482,-2.62137 -4.22059,-1.00675 1.00717,3.83335 4.06691,3.76535 9.33742,6.82085 18.61061,10.78923 9.68741,4.14565 14.55447,6.49267 18.59988,8.96931 5.63328,3.44877 7.15438,3.94624 21.03921,6.88092 2.70945,0.57267 7.83748,1.09762 21.03921,2.1538 2.18015,0.17441 5.70139,0.46255 7.82499,0.64031 4.01963,0.33647 4.75229,-0.42754 1.18272,-1.23334 -4.41219,-0.99601 -10.76226,-2.18816 -14.80112,-2.77872 -10.76053,-1.57343 -13.11139,-2.01057 -13.11139,-2.43805 0,-0.25208 0.41164,-0.61628 0.91475,-0.80935 0.50311,-0.19306 0.91475,-0.77126 0.91475,-1.28491 0,-0.93545 -0.81021,-1.15116 -3.659,-0.97417 -1.23968,0.077 -1.35364,-0.0283 -0.60983,-0.56367 0.55533,-0.3997 3.47544,-0.59495 7.43195,-0.49692 3.58446,0.0888 6.67837,3.1e-4 6.87535,-0.19667 0.76055,-0.76055 -1.49644,-1.79356 -4.62881,-2.11858 -3.36718,-0.34939 -5.25948,-1.4451 -4.53108,-2.62368 0.53015,-0.8578 2.90302,-0.84781 7.2771,0.0306 2.64163,0.53052 4.05786,0.52597 5.87628,-0.0188 2.13297,-0.63905 2.52799,-0.58565 3.60032,0.48668 1.95701,1.95701 5.75822,2.32108 9.44859,0.90496 0.6403,-0.24571 0.97141,-0.0387 0.97141,0.60722 0,1.21561 1.73983,1.23965 3.31817,0.0459 1.73245,-1.31036 2.72735,-1.1301 2.32182,0.42067 -0.32789,1.25383 -0.19707,1.29859 2.76855,0.94736 1.71198,-0.20276 4.01933,-0.84889 5.12744,-1.43583 1.67493,-0.88719 3.48086,-1.0517 10.70755,-0.97538 6.12761,0.0647 9.41186,-0.16188 11.12944,-0.76788 2.00706,-0.70813 2.43662,-0.71636 2.43662,-0.0466 0,0.44717 -0.41164,1.15466 -0.91475,1.5722 -1.85457,1.53916 -0.96594,1.99763 3.20162,1.65179 2.61838,-0.21729 5.22599,-0.89972 7.16553,-1.87527 2.44331,-1.22894 3.08834,-1.35911 3.24633,-0.6551 0.2499,1.1135 2.00709,1.12057 4.64429,0.0187 1.90553,-0.79618 2.08067,-0.77339 2.36331,0.30744 0.39981,1.52888 1.68012,0.99349 2.95153,-1.23426 1.13742,-1.99296 3.98598,-4.09382 4.65021,-3.42959 0.24056,0.24056 -0.091,0.82375 -0.73681,1.29597 -0.64581,0.47222 -0.9972,1.03558 -0.78088,1.25189 0.81623,0.81623 13.76036,-5.05195 22.46537,-10.1846 3.19643,-1.88469 4.84949,-2.14517 2.07444,-0.32688 -0.84899,0.55628 -1.54362,1.27951 -1.54362,1.60718 0,0.97292 2.00578,0.67254 3.91549,-0.58637 3.10108,-2.04429 2.1163,-6.31055 -1.00649,-4.36033 -1.77886,1.11092 -1.84915,0.54805 -0.2979,-2.38541 1.10754,-2.0944 3.21508,-3.94351 10.21667,-8.96387 12.96105,-9.2935 15.32008,-11.50348 25.19709,-23.60509 2.69636,-3.30365 3.63056,-3.31948 1.59572,-0.027 -1.03067,1.66766 -1.18877,2.34504 -0.6282,2.69149 0.50105,0.30967 -1.03765,1.97888 -4.64684,5.04099 -5.89935,5.00511 -10.24777,9.52554 -9.6949,10.07841 1.3743,1.3743 18.50926,-14.44565 23.80197,-21.9753 3.99015,-5.67658 9.01298,-15.75039 10.906,-21.87316 1.87984,-6.08013 2.47314,-8.50489 2.31729,-9.47053 -0.0637,-0.39475 0.50904,-0.80638 1.27278,-0.91475 1.19853,-0.17006 1.43847,-0.65617 1.75281,-3.55111 0.37727,-3.47435 1.67817,-7.61332 2.22198,-7.0695 0.17091,0.1709 -0.14797,1.45719 -0.70863,2.85841 -0.9781,2.44452 -0.97084,2.59986 0.1792,3.83675 0.65921,0.709 1.38854,2.31818 1.62073,3.57595 0.2322,1.25778 0.64596,2.28688 0.91947,2.28688 0.72785,0 2.32194,-3.43823 2.7852,-6.00725 0.22071,-1.22402 0.65702,-2.72025 0.96958,-3.32494 0.31255,-0.6047 0.78171,-6.44754 1.04257,-12.98408 0.30304,-7.59331 0.72945,-12.13978 1.18095,-12.59128 0.38866,-0.38866 0.70665,-0.54384 0.70665,-0.34483 0,0.199 0.82254,3.61559 1.82786,7.59241 2.75234,10.88764 2.39167,18.40489 -1.28909,26.86832 -2.24438,5.16066 -4.80148,12.64129 -4.80458,14.0555 -0.002,0.91586 0.362,1.37212 1.09468,1.37212 1.5422,0 2.55968,-1.19482 2.57064,-3.01867 0.0118,-1.97128 0.8903,-3.481 1.475,-2.53493 1.4102,2.28176 3.18085,-0.90148 5.52944,-9.94073 1.69985,-6.54235 2.69264,-8.96927 2.72499,-6.66134 0.0415,2.96121 -2.22266,10.07554 -5.21036,16.37167 -0.89826,1.89292 -2.66946,9.46769 -2.68833,11.49689 -0.006,0.62655 -0.83386,2.07682 -1.84008,3.22284 -1.81085,2.06245 -2.29872,3.26091 -1.32745,3.26091 0.70349,0 6.58754,-6.02374 8.04181,-8.23273 0.66243,-1.00623 1.37781,-3.12382 1.58971,-4.70577 0.27186,-2.02949 0.78603,-3.13885 1.74651,-3.76817 1.34789,-0.88318 3.67211,-5.11184 4.07277,-7.40997 0.14586,-0.83668 -0.11619,-1.16515 -0.88019,-1.10325 -1.29144,0.10464 -1.12433,-0.60381 1.52998,-6.48605 3.79105,-8.40139 6.1278,-14.57624 7.2512,-19.16119 0.6901,-2.81655 0.65261,-3.06113 -0.62817,-4.09825 -1.32814,-1.07546 -1.33599,-1.15276 -0.31506,-3.10302 0.57585,-1.10004 1.27603,-2.46664 1.55595,-3.03689 0.35519,-0.72359 0.082,-1.55267 -0.90437,-2.74425 -0.77733,-0.93908 -1.78221,-2.6679 -2.23307,-3.84183 -0.81788,-2.12953 -1.77632,-12.4828 -1.75697,-18.97902 0.008,-2.5314 -0.23552,-3.52259 -0.9291,-3.78874 -1.31948,-0.50633 -2.17289,1.38885 -2.202,4.89008 -0.0236,2.83785 -0.0527,2.88484 -0.8634,1.39492 -0.96724,-1.77757 -2.28817,-8.50324 -2.13567,-10.87405 0.16753,-2.60456 0.054,-2.94655 -1.6509,-4.9727 -0.89388,-1.06232 -2.06654,-3.61926 -2.60591,-5.68211 -1.04171,-3.98401 -2.62083,-5.30487 -3.28872,-2.75084 -0.60781,2.32425 -1.27824,0.65934 -1.67174,-4.15152 -0.32406,-3.96185 -0.59317,-4.77017 -1.967,-5.90823 -3.10881,-2.5753 -3.78229,-5.69854 -3.78229,-17.54026 0,-6.25501 0.27046,-11.34387 0.64822,-12.19664 0.35653,-0.80483 1.97214,-4.10741 3.59025,-7.33907 2.22319,-4.4401 2.84418,-6.26558 2.54157,-7.47124 -0.89985,-3.5853 8.96667,-10.93694 17.18778,-12.80679 3.75034,-0.85299 4.59417,-0.86378 7.16015,-0.0915 2.54262,0.76523 3.4021,0.76101 6.82772,-0.0334 4.58033,-1.06224 4.59912,-1.05777 13.06379,3.11201 8.69817,4.2848 10.92298,6.00447 10.51313,8.12612 -0.42712,2.21103 2.48079,5.3578 5.46918,5.91843 3.97827,0.74632 11.77981,10.37798 14.55129,17.96477 2.11597,5.79236 2.89013,11.12536 3.58529,24.6982 1.32298,25.83086 0.98574,34.26865 -1.53102,38.30677 -0.85788,1.37645 -1.05746,2.95116 -2.52623,19.93221 -0.47868,5.53423 -1.15451,11.84599 -1.50182,14.02614 -2.03309,12.76192 -2.39951,14.85041 -2.99576,17.0753 -0.31461,1.17393 -1.03135,4.05538 -1.59276,6.40324 -1.16845,4.8866 -5.5254,19.22588 -6.67065,21.95396 -0.42241,1.00622 -1.26548,3.0644 -1.87348,4.57374 -6.13586,15.23201 -13.18699,27.73652 -23.21161,41.16367 -5.80528,7.77568 -8.41385,10.8338 -7.93282,9.29994 0.49391,-1.57491 -0.58094,-1.29818 -2.36856,0.60983 -0.90541,0.96639 -1.45393,2.14064 -1.29442,2.77107 0.15223,0.60171 -0.0825,1.78665 -0.52174,2.6332 -1.33917,2.58125 -12.64703,12.24475 -24.67463,21.0865 -3.54358,2.60496 -6.71729,4.95686 -7.0527,5.22645 -0.33541,0.26959 -1.63892,1.12128 -2.8967,1.89265 -4.32758,2.65404 -2.43586,-0.0907 3.30505,-4.7953 19.69188,-16.13734 30.65739,-27.45281 37.67291,-38.87523 1.08099,-1.76002 1.85226,-3.53958 1.71393,-3.95455 -0.46678,-1.40035 -7.8365,6.41564 -15.18852,16.10826 -7.73369,10.19576 -12.00715,14.51631 -21.25259,21.48674 -6.49981,4.90043 -19.00254,13.38233 -23.17362,15.72109 -1.50934,0.8463 -4.1432,2.36885 -5.85304,3.38346 -1.70983,1.0146 -3.69941,2.03218 -4.42128,2.2613 -1.3225,0.41974 -1.83537,1.55404 -0.70266,1.55404 1.20776,0 0.57879,1.69556 -0.76229,2.05496 -2.26421,0.60678 -2.53049,0.44468 -1.37213,-0.8353 1.40339,-1.55072 1.43131,-1.55402 -4.64609,0.54913 -2.81117,0.97282 -6.50991,1.91541 -8.21943,2.09461 -1.70951,0.17921 -4.04212,0.87159 -5.18358,1.53863 -5.88575,3.4395 -8.16283,4.22244 -12.4425,4.27816 -4.93896,0.0643 -7.40643,0.85771 -9.21722,2.96376 -0.90066,1.04751 -2.46345,1.74332 -5.18357,2.30789 -2.1418,0.44454 -4.99188,1.11374 -6.33351,1.4871 -1.34163,0.37336 -2.98818,0.79321 -3.65899,0.93301 -0.67082,0.13978 -2.86621,0.66476 -4.87866,1.1666 -12.25931,3.05712 -16.16055,3.83817 -16.16055,3.23545 z m -33.27535,-50.98205 c 0.18558,-0.30026 -0.0727,-0.70328 -0.57384,-0.8956 -0.50118,-0.19233 -0.91124,-0.61284 -0.91124,-0.93449 0,-0.56971 1.97561,-0.52183 11.43435,0.27713 4.51732,0.38157 5.71974,-0.21244 3.18068,-1.5713 -1.86517,-0.99821 -14.83517,-1.00139 -20.25598,-0.005 -5.04601,0.92752 -5.95167,1.61306 -2.74425,2.07723 1.09008,0.15776 3.35408,0.54404 5.03112,0.8584 4.2609,0.79874 4.46024,0.80671 4.83916,0.1936 z m -33.54961,48.16233 c -0.14258,-0.14048 0.17988,-0.74064 0.71658,-1.33369 1.25717,-1.38916 0.52392,-2.57664 -1.30723,-2.11705 -0.78137,0.19612 -1.57723,0.10326 -1.76858,-0.20635 -0.54506,-0.88192 3.8919,-2.08296 7.59114,-2.05484 3.49944,0.0266 7.78003,1.30379 6.09832,1.81955 -2.67623,0.82076 -2.61807,0.73501 -1.57658,2.32453 0.74503,1.13707 0.79991,1.54306 0.21852,1.6167 -1.77991,0.22546 -9.73332,0.18649 -9.97217,-0.0489 z m -10.62373,-4.92814 c 0,-0.77674 2.45708,-0.77674 3.659,0 0.68042,0.43972 0.32893,0.59355 -1.37213,0.60049 -1.25777,0.005 -2.28687,-0.26508 -2.28687,-0.60049 z m 20.7343,-7.35999 c -1.46955,-0.50324 -9.01846,-2.13534 -16.89709,-3.65321 -2.08212,-0.40113 -4.40078,-0.56848 -5.15257,-0.37189 -0.81148,0.21221 -2.12286,-0.0962 -3.22738,-0.75903 -1.19712,-0.7184 -3.647,-1.24558 -6.87097,-1.47857 -3.76324,-0.27196 -5.58487,-0.71988 -7.31798,-1.79941 -2.03121,-1.2652 -8.58809,-4.48445 -12.06483,-5.92348 -1.74314,-0.72149 -7.04726,-2.33999 -8.84257,-2.69821 -0.83852,-0.16732 -1.89478,-0.90304 -2.34725,-1.63493 -0.69035,-1.11668 -0.69035,-1.27255 0,-0.96903 0.45247,0.19894 3.84134,1.50581 7.53083,2.90417 3.68948,1.39836 7.257,2.76536 7.92781,3.03777 0.67082,0.27242 3.27785,1.07097 5.79341,1.77457 2.51556,0.7036 5.41141,1.54439 6.43524,1.86843 1.02382,0.32404 3.21922,0.88064 4.87865,1.23689 1.65944,0.35624 4.93814,1.06355 7.28599,1.57177 4.20678,0.91064 12.39945,2.11922 21.95396,3.23866 2.68326,0.31438 5.15308,0.60626 5.48849,0.64863 0.33541,0.0424 -0.008,0.32532 -0.76297,0.6288 -0.75504,0.30347 -1.85274,0.3829 -2.43933,0.17651 -0.70438,-0.24785 -0.85946,-0.17107 -0.45669,0.22613 0.3354,0.33077 2.25637,0.9509 4.26882,1.37806 5.28626,1.12205 5.30371,1.15458 0.60983,1.13618 -2.34785,-0.009 -4.95488,-0.25166 -5.7934,-0.53881 z m 23.47854,-0.56783 c -0.23915,-0.38695 1.36359,-0.60642 4.38529,-0.6005 3.29987,0.006 4.4813,0.19087 3.84744,0.6005 -1.20747,0.78033 -7.75047,0.78033 -8.23273,0 z m 106.65273,-1.56754 c 0.20505,-0.53435 0.37281,-1.08631 0.37281,-1.22658 0,-0.14027 0.27443,-0.25504 0.60983,-0.25504 0.99341,0 0.69412,1.66666 -0.37281,2.07608 -0.71922,0.27599 -0.8827,0.11663 -0.60983,-0.59446 z m -89.38686,-4.94736 c 0.44022,-0.17617 0.96621,-0.15451 1.16885,0.0481 0.20264,0.20264 -0.15755,0.34678 -0.80041,0.3203 -0.71042,-0.0293 -0.85492,-0.17377 -0.36844,-0.36844 z m 2.87861,-0.77069 c -0.1827,-0.29562 1.79623,-0.72487 4.39764,-0.95389 2.6014,-0.22902 5.82752,-0.65751 7.16915,-0.95221 1.34163,-0.2947 3.53703,-0.51096 4.87866,-0.48058 l 2.43932,0.0553 -2.43932,0.5405 c -2.94163,0.6518 -4.37507,0.87225 -9.14749,1.40677 -2.01244,0.2254 -4.40302,0.52499 -5.31238,0.66575 -0.90937,0.14076 -1.80288,0.0141 -1.98558,-0.28156 z m -9.30836,-2.2845 c 0.59335,-0.15462 1.41662,-0.14445 1.8295,0.0226 0.41287,0.16706 -0.0726,0.29356 -1.07881,0.28113 -1.00623,-0.0124 -1.34404,-0.1491 -0.75069,-0.30372 z m 30.93738,-0.83305 c 0,-0.3552 0.27442,-0.47622 0.60983,-0.26892 0.33541,0.20729 0.60983,0.49791 0.60983,0.64582 0,0.14791 -0.27442,0.26892 -0.60983,0.26892 -0.33541,0 -0.60983,-0.29062 -0.60983,-0.64582 z m -65.55696,-1.23316 c -1.00622,-0.30496 -2.17253,-0.4272 -2.59179,-0.27164 -0.41925,0.15557 -0.76229,-0.002 -0.76229,-0.34928 0,-0.40914 1.66724,-0.52047 4.7262,-0.31559 2.59941,0.1741 4.93202,0.32996 5.18358,0.34636 0.25155,0.0164 0.45737,0.30423 0.45737,0.63964 0,0.74405 -4.49958,0.7123 -7.01307,-0.0495 z m 155.5072,-2.99967 c 0.2073,-0.33541 0.65132,-0.60984 0.98673,-0.60984 0.33541,0 0.44023,0.27443 0.23294,0.60984 -0.2073,0.3354 -0.65132,0.60983 -0.98673,0.60983 -0.33541,0 -0.44023,-0.27443 -0.23294,-0.60983 z m -102.4518,-2.38592 c 2.14374,-0.84211 5.18357,-1.26038 5.18357,-0.71324 0,0.78781 -1.64725,1.27453 -4.16624,1.231 -1.73492,-0.03 -1.96325,-0.14618 -1.01733,-0.51776 z m -82.32734,-0.73778 c -1.34163,-0.30902 -3.30408,-0.96751 -4.36099,-1.46332 -1.05691,-0.49581 -2.22322,-0.90147 -2.59179,-0.90147 -0.36857,0 -0.67012,-0.26757 -0.67012,-0.59459 0,-0.73159 3.3239,-0.1744 5.70233,0.95588 0.95613,0.45438 2.67128,1.00115 3.81145,1.21504 1.14017,0.2139 2.07303,0.63278 2.07303,0.93086 0,0.63847 -0.67968,0.61406 -3.96391,-0.1424 z m -38.41943,-2.36479 c -0.20729,-0.33541 0.0671,-0.60983 0.60983,-0.60983 0.54271,0 0.81713,0.27442 0.60984,0.60983 -0.2073,0.33541 -0.48172,0.60983 -0.60984,0.60983 -0.12811,0 -0.40253,-0.27442 -0.60983,-0.60983 z m -34.09049,-20.41889 c -3.11783,-1.87747 -7.41512,-4.85832 -11.00243,-7.63193 -3.19777,-2.47242 -14.365717,-13.72482 -14.365717,-14.47433 0,-1.39116 3.263919,1.2697 5.806997,4.73407 1.23085,1.67675 4.33836,4.8382 6.90557,7.02543 5.73447,4.8857 4.91562,4.26468 10.76597,8.16489 2.68326,1.78883 5.13936,3.48943 5.458,3.7791 1.15663,1.05151 -0.11478,0.48242 -3.56839,-1.59723 z m 64.88702,-7.63339 c 0,-0.33541 0.82327,-0.60984 1.82949,-0.60984 1.00623,0 1.8295,0.27443 1.8295,0.60984 0,0.3354 -0.82327,0.60983 -1.8295,0.60983 -1.00622,0 -1.82949,-0.27443 -1.82949,-0.60983 z m -73.214,-13.9082 c -5.83774,-4.17922 -6.03272,-4.34801 -10.0281,-8.68075 -8.846888,-9.59391 -8.982426,-10.51165 -0.33402,-2.26171 3.25237,3.10252 8.00523,7.28749 10.5619,9.29994 4.26308,3.35562 5.45779,4.62993 4.25564,4.53923 -0.25156,-0.019 -2.2565,-1.3225 -4.45542,-2.89671 z m 82.97131,2.32139 c 0,-0.76408 0.64718,-0.76408 1.8295,0 0.7397,0.47802 0.65218,0.59293 -0.45738,0.60049 -0.75466,0.005 -1.37212,-0.26509 -1.37212,-0.60049 z m -91.6781,-3.45572 c -0.59954,-0.59954 -0.49464,-3.25244 0.12861,-3.25244 0.97203,0 1.93191,1.65743 1.54452,2.66695 -0.4025,1.04889 -1.00047,1.25814 -1.67313,0.58549 z m 78.26179,-1.93113 c 0,-0.85926 0.68691,-1.25345 1.58421,-0.90913 1.27268,0.48838 1.03375,1.41732 -0.36454,1.41732 -0.67082,0 -1.21967,-0.22869 -1.21967,-0.50819 z m -10.05614,-4.36411 c -0.96066,-1.00272 -1.62584,-1.94396 -1.47816,-2.09164 0.43086,-0.43086 5.63308,2.37165 5.90244,3.17973 0.49811,1.49434 -2.70484,0.70662 -4.42428,-1.08809 z m -86.807021,-0.31297 c -1.454249,-0.83138 -4.335706,-2.97034 -6.403237,-4.75325 -2.067531,-1.78291 -4.96226,-4.17028 -6.432731,-5.30525 -2.932907,-2.26375 -5.845269,-6.50117 -7.834263,-11.39867 l -1.284935,-3.1639 1.475108,-0.96653 c 0.811309,-0.53159 1.484977,-1.44044 1.497039,-2.01967 0.02963,-1.42269 1.997441,0.97077 6.905565,8.39925 2.10529,3.18637 4.988961,6.8911 6.408158,8.23273 1.419195,1.34164 3.229476,3.53703 4.022845,4.87866 0.793369,1.34163 2.426332,3.38505 3.628806,4.54092 3.53717,3.40008 2.570644,4.15859 -1.982355,1.55571 z m 213.345861,1.0689 c 0.005,-0.46683 2.89132,-1.98195 3.77582,-1.98195 0.26854,0 0.48825,0.54884 0.48825,1.21966 0,0.98735 -0.40656,1.21966 -2.13441,1.21966 -1.17393,0 -2.13227,-0.20581 -2.12966,-0.45737 z M 68.42107,382.3512 c -1.576013,-1.84474 -2.501227,-3.34988 -2.056033,-3.34474 1.160923,0.0134 1.783546,0.55018 4.41012,3.80211 3.36768,4.1695 1.246718,3.75742 -2.354087,-0.45737 z m 20.346833,-0.48115 c -3.782547,-3.52534 -8.513633,-9.04817 -11.341997,-13.24007 -5.323804,-7.89039 -1.254421,-7.04577 4.40732,0.91474 0.954205,1.34163 2.524238,3.29476 3.488962,4.34027 1.450103,1.57154 1.588414,1.9645 0.798194,2.26773 -0.525719,0.20174 -0.955852,0.65387 -0.955852,1.00473 0,0.85551 3.63753,3.0293 4.50932,2.69476 0.570304,-0.21885 1.540142,1.20065 3.26982,4.78586 0.588612,1.22006 -1.092167,0.1059 -4.175767,-2.76802 z m 69.881407,0.78607 c -0.60708,-0.67082 -0.85543,-1.21094 -0.55189,-1.20028 0.70893,0.0249 2.6863,1.51904 2.6863,2.02979 0,0.77446 -1.0533,0.3651 -2.13441,-0.82951 z m -98.487899,-3.96391 c -0.787747,-0.83852 -1.237565,-1.52458 -0.999594,-1.52458 0.764877,0 3.438923,1.95131 3.438923,2.50946 0,0.96607 -0.97713,0.57155 -2.439329,-0.98488 z m 39.639088,0.32405 c -0.50311,-0.63526 -1.869974,-2.34018 -3.03747,-3.7887 -1.167499,-1.44852 -1.63929,-2.25003 -1.048424,-1.78112 1.617039,1.28325 6.104365,6.77368 5.514805,6.74759 -0.28279,-0.0125 -0.92579,-0.54251 -1.428911,-1.17777 z m -12.19664,-7.0682 c 0,-0.52291 0.278901,-0.77836 0.61978,-0.56769 0.340878,0.21067 0.461895,0.6385 0.268925,0.95074 -0.522772,0.84586 -0.888705,0.68814 -0.888705,-0.38305 z M 394.95927,339.33838 c 0,-0.64868 2.54041,-1.85566 3.00465,-1.42755 0.30068,0.27729 -1.86371,2.00865 -2.54727,2.03764 -0.25156,0.0107 -0.45738,-0.26387 -0.45738,-0.61009 z m -21.95396,-13.1252 c 0,-0.18611 0.5003,-1.48962 1.11177,-2.8967 2.54888,-5.86537 2.46165,-5.71225 2.5,-4.38783 0.0368,1.26953 -2.69598,7.6229 -3.2788,7.6229 -0.18313,0 -0.33297,-0.15226 -0.33297,-0.33837 z m 6.11772,-17.1943 c 0.0254,-0.59751 1.54303,-2.59179 1.97242,-2.59179 0.18302,0 0.0156,0.68392 -0.37215,1.51983 -0.66202,1.42733 -1.64321,2.0846 -1.60027,1.07196 z m 5.08354,-7.39422 c 0.21205,-1.132 0.38556,-2.72613 0.38556,-3.54252 0,-0.83641 0.26677,-1.31947 0.61115,-1.10663 0.72646,0.44898 0.12596,5.20568 -0.76977,6.09751 -0.40988,0.40808 -0.48495,-0.0711 -0.22694,-1.44836 z m 19.70757,-4.80242 c -0.14553,-0.25156 -0.0438,-1.00623 0.22606,-1.67704 0.42835,-1.06477 0.49611,-1.00668 0.53352,0.45737 0.0423,1.65448 -0.24302,2.11259 -0.75958,1.21967 z m -7.00648,-14.48352 c 0.0124,-1.00622 0.1491,-1.34403 0.30372,-0.75068 0.15461,0.59334 0.14445,1.41662 -0.0226,1.82949 -0.16705,0.41288 -0.29355,-0.0726 -0.28112,-1.07881 z M 43.695944,267.39783 c 0,-0.33541 0.29062,-0.60983 0.645823,-0.60983 0.355202,0 0.476219,0.27442 0.268925,0.60983 -0.207293,0.33541 -0.497913,0.60983 -0.645822,0.60983 -0.14791,0 -0.268926,-0.27442 -0.268926,-0.60983 z m -2.439329,-3.9999 c 0,-0.88508 0.263961,-1.39743 0.609833,-1.18367 0.335407,0.20729 0.609832,0.90955 0.609832,1.56057 0,0.65102 -0.274425,1.18367 -0.609832,1.18367 -0.335408,0 -0.609833,-0.70225 -0.609833,-1.56057 z m -0.228687,-7.05331 c -0.20963,-1.04814 -0.351077,-2.90051 -0.314328,-4.11636 0.06636,-2.1957 0.07037,-2.19209 0.593201,0.5336 0.289511,1.50933 0.676309,3.3617 0.85955,4.11637 0.183241,0.75466 0.08782,1.37212 -0.212056,1.37212 -0.299872,0 -0.716737,-0.85758 -0.926367,-1.90573 z m 2.668016,1.2959 c 0,-0.33541 0.29062,-0.60983 0.645823,-0.60983 0.355202,0 0.476219,0.27442 0.268925,0.60983 -0.207293,0.33541 -0.497913,0.60983 -0.645822,0.60983 -0.14791,0 -0.268926,-0.27442 -0.268926,-0.60983 z m 57.324226,-5.4525 c 0,-0.31561 0.27442,-0.74345 0.60983,-0.95074 0.33541,-0.20729 0.60983,0.0509 0.60983,0.57384 0,0.52291 -0.27442,0.95074 -0.60983,0.95074 -0.33541,0 -0.60983,-0.25823 -0.60983,-0.57384 z m -57.182743,-3.08515 c 0,-1.17393 0.1255,-1.65417 0.27889,-1.06721 0.153389,0.58696 0.153389,1.54745 0,2.13441 -0.15339,0.58697 -0.27889,0.10672 -0.27889,-1.0672 z m 80.388353,-41.81142 c -0.0528,-1.06854 2.39187,-5.75549 3.00197,-5.75549 0.31139,0 0.23638,0.77495 -0.16669,1.72213 -0.95652,2.24772 -2.79436,4.86215 -2.83528,4.03336 z m 8.50711,-14.05658 c 0.003,-1.10023 6.84075,-10.61368 10.47047,-14.56762 1.23162,-1.34163 2.82362,-3.11496 3.53778,-3.94072 0.71416,-0.82577 3.07298,-3.36599 5.24182,-5.64493 3.31474,-3.48304 3.88218,-4.3872 3.5597,-5.67207 -0.5256,-2.09417 0.68952,-3.34216 3.25415,-3.34216 1.83812,0 2.86592,-0.69788 7.44386,-5.05438 5.6804,-5.40564 12.34342,-10.65343 19.24125,-15.15439 4.42356,-2.88646 16.24537,-9.16689 21.03921,-11.17726 1.50934,-0.63296 3.84195,-1.62486 5.18358,-2.20422 1.34163,-0.57935 3.94866,-1.52176 5.7934,-2.09422 1.84474,-0.57246 4.86341,-1.54358 6.70816,-2.15803 1.84474,-0.61447 5.96111,-1.69129 9.14748,-2.39297 3.18637,-0.70166 6.75389,-1.54775 7.92782,-1.88019 2.25509,-0.6386 8.4806,-1.50602 17.0753,-2.37913 2.85096,-0.28963 9.64297,-0.55049 15.09334,-0.5797 9.40806,-0.0504 9.90978,0.007 9.90978,1.12607 0,0.81249 0.52148,1.26548 1.67703,1.45677 0.92238,0.15269 -3.53702,0.15495 -9.90977,0.005 -17.28078,-0.40657 -31.19963,1.12386 -47.87182,5.26367 -2.81631,0.6993 -12.76041,3.96086 -14.94089,4.90044 -6.72092,2.89609 -12.00827,5.30981 -14.02614,6.40305 -7.74941,4.19846 -9.95465,5.52079 -15.37086,9.21677 -7.30196,4.9828 -15.71551,11.74735 -20.60924,16.56996 -11.63882,11.46966 -14.95999,15.23704 -27.47453,31.16583 -1.15628,1.47174 -2.10168,2.43223 -2.10088,2.13441 z m 23.49607,-37.46704 c 0.67802,-1.09706 4.13779,-4.1147 7.6558,-6.67744 1.61151,-1.17393 3.80658,-2.79772 4.87793,-3.60843 3.40595,-2.57734 1.57847,0.0825 -2.26972,3.30351 -3.52711,2.95226 -9.10768,7.0765 -10.21542,7.54956 -0.29824,0.12736 -0.32011,-0.12788 -0.0486,-0.5672 z m 238.03558,-23.12262 c -0.79182,-0.65966 -1.13918,-1.20851 -0.77191,-1.21967 0.36728,-0.0112 1.16448,0.52856 1.77156,1.19938 1.41232,1.5606 0.86267,1.57176 -0.99965,0.0203 z m -52.69607,-1.16629 c -0.31864,-0.29489 -1.60461,-0.86376 -2.85772,-1.26415 -1.25311,-0.4004 -2.4305,-0.97414 -2.61644,-1.27498 -0.45475,-0.73582 4.29055,0.96697 5.96691,2.14114 0.73354,0.51379 1.0531,0.93416 0.71015,0.93416 -0.34296,0 -0.88427,-0.24128 -1.2029,-0.53617 z m 48.20723,-0.90871 c -2.62396,-0.98897 -3.35408,-1.55364 -3.35408,-2.59404 0,-0.73947 0.48067,-0.64763 2.47406,0.47272 4.15087,2.33292 4.65301,3.54335 0.88002,2.12132 z m -46.72238,-0.89734 c -0.7999,-0.61741 -3.13545,-1.61962 -5.19012,-2.22715 -3.72238,-1.10065 -7.52513,-3.31778 -5.73703,-3.34489 2.04404,-0.031 13.4367,5.41143 13.4367,6.41889 0,0.60017 -1.12795,0.21954 -2.50955,-0.84685 z m -19.8438,-5.91682 c -0.50827,-1.32452 0.0958,-1.71475 1.09997,-0.71058 0.46518,0.46518 1.25252,1.00543 1.74964,1.20056 0.52449,0.20588 0.19194,0.37499 -0.79232,0.40292 -1.00075,0.0284 -1.84423,-0.33768 -2.05729,-0.8929 z M 81.927639,121.69012 c 0.277859,-1.06253 1.888647,-2.20354 2.3954,-1.69678 0.324891,0.32489 -1.613269,2.87426 -2.185157,2.87426 -0.284988,0 -0.379597,-0.52986 -0.210243,-1.17748 z m 216.678151,-1.69844 c -1.50933,-0.49096 -3.52141,-1.24334 -4.47128,-1.67195 l -1.72704,-0.77931 1.72704,-0.34094 c 1.01523,-0.20041 2.28648,0.0195 3.08441,0.53358 0.74655,0.48098 2.66752,1.40641 4.26882,2.05652 3.534,1.43476 1.3734,1.58628 -2.88195,0.2021 z m 7.95476,-0.15567 c -2.64708,-1.04782 -3.99764,-2.45319 -2.36463,-2.46057 0.44721,-0.002 2.24915,0.61543 4.00432,1.37212 5.16783,2.22796 3.70018,3.2022 -1.63969,1.08845 z M 86.384195,116.5345 c 0,-0.46453 0.686061,-1.29413 1.52458,-1.84355 1.740192,-1.14022 1.956461,-0.63914 0.575252,1.33281 -1.070466,1.5283 -2.099832,1.77868 -2.099832,0.51074 z m 6.316119,-6.16846 c 0.503111,-0.50311 1.105164,-0.91474 1.337894,-0.91474 0.23273,0 0.08152,0.41163 -0.336027,0.91474 -0.417546,0.50312 -1.019598,0.91475 -1.337895,0.91475 -0.318296,0 -0.167084,-0.41163 0.336028,-0.91475 z"
       id="path955" />
    <g
       style="font-style:normal;font-variant:normal;font-weight:600;font-stretch:normal;font-size:40px;line-height:1.25;font-family:'Roboto Slab';-inkscape-font-specification:'Roboto Slab Semi-Bold';white-space:pre;shape-inside:url(#rect858);display:inline;fill:#cccccc;fill-opacity:0.596078;stroke:none"
       id="text856-7"
       transform="matrix(1.5883894,0,0,1.6505664,-395.49461,19.195994)"
       aria-label="RL">
      <text
         xml:space="preserve"
         style="font-style:normal;font-weight:normal;font-size:191.985px;line-height:1.25;font-family:sans-serif;fill:#cccccc;fill-opacity:0.596078;stroke:none;stroke-width:1.99983"
         x="284.03503"
         y="213.45111"
         id="text878-5"
         transform="scale(0.99737364,1.0026333)"><tspan
           sodipodi:role="line"
           id="tspan876-3"
           x="284.03503"
           y="213.45111"
           style="font-style:normal;font-variant:normal;font-weight:bold;font-stretch:normal;font-size:191.985px;font-family:'Roboto Slab';-inkscape-font-specification:'Roboto Slab';fill:#cccccc;fill-opacity:0.596078;stroke-width:1.99983">TD</tspan></text>
    </g>
    <g
       aria-label="RL"
       transform="matrix(1.5883894,0,0,1.6505664,-401.49461,15.195994)"
       id="text856"
       style="font-style:normal;font-variant:normal;font-weight:600;font-stretch:normal;font-size:40px;line-height:1.25;font-family:'Roboto Slab';-inkscape-font-specification:'Roboto Slab Semi-Bold';white-space:pre;shape-inside:url(#rect858);fill:#000000;fill-opacity:1;stroke:none">
      <text
         transform="scale(0.99737364,1.0026333)"
         id="text878"
         y="213.45111"
         x="284.03503"
         style="font-style:normal;font-weight:normal;font-size:191.985px;line-height:1.25;font-family:sans-serif;fill:#000000;fill-opacity:1;stroke:none;stroke-width:1.99983"
         xml:space="preserve"><tspan
           style="font-style:normal;font-variant:normal;font-weight:bold;font-stretch:normal;font-size:191.985px;font-family:'Roboto Slab';-inkscape-font-specification:'Roboto Slab';fill:#ffffff;stroke-width:1.99983"
           y="213.45111"
           x="284.03503"
           id="tspan876"
           sodipodi:role="line">TD</tspan></text>
    </g>
  </g>
</svg>
